<svg id="Capa_1" enable-background="new 0 0 512 512" height="512" viewBox="0 0 512 512" width="512" xmlns="http://www.w3.org/2000/svg"><g><path d="m467.923 20.896c-40.267-9.657-81.181-16.646-121.604-20.775-11.412-1.176-21.898 6.394-24.385 17.584-3.279 14.755-11.586 28.162-23.394 37.751-11.974 9.723-27.081 15.078-42.54 15.078s-30.566-5.355-42.54-15.078c-11.808-9.589-20.116-22.996-23.394-37.75-2.486-11.193-12.97-18.759-24.385-17.586-40.419 4.127-81.332 11.116-121.605 20.775-9.642 2.314-16.377 10.856-16.377 20.773v127.112c0 6.463 2.877 12.508 7.894 16.585 5.004 4.066 11.489 5.643 17.794 4.321 13.419-2.809 27.09-5.381 40.633-7.645 3.042-.509 4.995 1.197 5.694 1.952.702.761 2.254 2.855 1.501 5.866l-36.029 143.911c-1.006 4.018 1.436 8.091 5.454 9.097 4.017 1.007 8.091-1.435 9.097-5.454l13.463-53.775c.436.079.882.126 1.341.126h80.861c-2.637 4.684-4.581 9.659-4.92 13.922-.585 7.429 1.819 14.539 6.77 20.022 4.955 5.485 11.786 8.6 19.234 8.768.211.005.422.007.633.007 8.122 0 16.3-3.514 23.691-10.188l12.531-11.316c6.012 5.405 13.957 8.7 22.659 8.7s16.647-3.296 22.659-8.701l12.532 11.317c7.392 6.675 15.569 10.189 23.691 10.188.211 0 .423-.002.633-.007 7.448-.168 14.279-3.282 19.235-8.769 4.95-5.483 7.354-12.593 6.768-20.026-.339-4.26-2.282-9.234-4.919-13.918h82.233l39.048 155.973c3.163 12.636-4.003 25.642-16.315 29.608-18.032 5.807-36.394 10.72-54.931 14.718l-24.091-96.225c-1.006-4.02-5.082-6.464-9.097-5.454-4.019 1.006-6.46 5.079-5.454 9.097l23.925 95.564c-10.769 2.03-21.584 3.75-32.415 5.152-4.109.531-7.008 4.292-6.477 8.4.489 3.782 3.715 6.539 7.429 6.539.321 0 .646-.021.972-.062 35.408-4.581 70.646-12.471 104.737-23.451 19.804-6.379 31.343-27.256 26.267-47.528l-61.645-246.234c-.754-3.011.799-5.106 1.501-5.866.698-.756 2.654-2.467 5.694-1.953 13.52 2.26 27.19 4.832 40.633 7.645 6.299 1.318 12.788-.255 17.793-4.32 5.017-4.076 7.895-10.12 7.895-16.585v-127.112c0-9.919-6.736-18.462-16.378-20.773zm-257.167 284.267c-4.687 4.234-9.519 6.394-13.933 6.318-3.281-.074-6.279-1.433-8.439-3.825-2.191-2.426-3.21-5.466-2.949-8.785.264-3.327 4.169-10.869 9.001-15.987 3.541-3.752 3.85-9.493.735-13.649-4.651-6.206-7.423-12.552-7.234-16.561.114-2.429.88-5.892 3.88-8.6 2.409-2.177 5.53-3.237 8.795-2.994 4.359.328 8.863 2.938 13.024 7.546l12.912 14.299c-2.846 4.963-4.482 10.703-4.482 16.822 0 4.564.911 8.918 2.553 12.897zm45.244-6.484c-10.439 0-18.933-8.493-18.933-18.932s8.493-18.932 18.933-18.932c10.439 0 18.932 8.493 18.932 18.932s-8.493 18.932-18.932 18.932zm67.618 8.975c-2.162 2.394-5.159 3.752-8.441 3.826-4.406.103-9.245-2.085-13.933-6.318l-13.864-12.52c1.641-3.979 2.553-8.332 2.553-12.896 0-6.119-1.636-11.86-4.482-16.822l12.912-14.299c4.161-4.609 8.665-7.218 13.023-7.546 3.275-.238 6.388.819 8.799 2.996 2.997 2.706 3.763 6.169 3.878 8.598.188 4.009-2.583 10.355-7.236 16.562-3.114 4.157-2.804 9.898.738 13.649 4.83 5.116 8.735 12.66 8.998 15.98.263 3.326-.757 6.365-2.945 8.79zm145.683-138.873c0 1.926-.857 3.727-2.353 4.941-.871.708-2.715 1.815-5.262 1.281-13.641-2.855-27.513-5.464-41.232-7.758-7.115-1.189-14.289 1.269-19.188 6.573-4.906 5.314-6.787 12.672-5.032 19.685l18.842 75.261h-80.318c2.538-5.013 4.565-10.936 4.288-16.797-.352-7.458-3.481-14.215-8.808-19.025-5.485-4.954-12.574-7.382-19.977-6.821-8.274.623-16.238 4.928-23.031 12.451l-11.971 13.257c-5.475-3.789-12.11-6.016-19.258-6.016s-13.783 2.227-19.258 6.016l-11.972-13.257c-6.793-7.523-14.757-11.828-23.033-12.451-7.394-.563-14.49 1.866-19.974 6.819-5.33 4.813-8.459 11.57-8.81 19.028-.276 5.859 1.751 11.782 4.289 16.796h-80.319l18.842-75.262c1.756-7.013-.125-14.372-5.032-19.685-4.899-5.304-12.073-7.757-19.188-6.572-13.742 2.298-27.614 4.907-41.231 7.758-2.546.532-4.391-.574-5.263-1.282-1.495-1.215-2.353-3.016-2.353-4.942v-127.111c0-2.953 2.006-5.497 4.876-6.187 31.014-7.437 62.41-13.258 93.653-17.387 2.901 26.79 15.013 51.568 34.612 70.478 21.63 20.87 50.098 32.363 80.16 32.363 9.379 0 18.712-1.129 27.737-3.355 4.022-.992 6.478-5.057 5.486-9.078-.993-4.024-5.063-6.476-9.078-5.487-7.852 1.937-15.975 2.919-24.145 2.919-26.156 0-50.925-10-69.745-28.158-17.105-16.503-27.653-38.139-30.136-61.523 3.699-.425 7.395-.835 11.086-1.212 3.852-.376 7.381 2.15 8.217 5.916 4.008 18.043 14.159 34.429 28.582 46.141 14.639 11.889 33.104 18.436 51.996 18.436 18.891 0 37.357-6.547 51.995-18.434 14.423-11.712 24.573-28.099 28.582-46.141.837-3.765 4.366-6.302 8.218-5.915 3.689.377 7.383.786 11.08 1.211-3.297 30.947-20.749 58.646-47.643 75.05-3.536 2.157-4.655 6.773-2.498 10.309 1.414 2.317 3.882 3.596 6.41 3.596 1.331 0 2.68-.354 3.898-1.098 30.833-18.808 50.863-50.542 54.719-86.017 31.249 4.129 62.648 9.95 93.662 17.388 2.871.688 4.876 3.233 4.876 6.187v127.111z"/><path d="m307.059 495.467c-14.373 1.043-28.902 1.547-43.567 1.526v-107.333c0-4.143-3.359-7.5-7.501-7.5s-7.5 3.357-7.5 7.5v107.125c-35.275-.914-71.308-4.856-107.89-11.807l23.406-93.496c1.006-4.018-1.436-8.091-5.454-9.097-4.011-1.008-8.091 1.436-9.097 5.454l-23.578 94.184c-17.941-3.79-36.005-8.29-54.169-13.511-12.969-3.728-20.569-16.868-17.303-29.915l17.383-69.434c1.006-4.018-1.436-8.091-5.454-9.097-4.011-1.002-8.091 1.436-9.097 5.454l-17.383 69.434c-5.24 20.93 6.932 42.003 27.71 47.974 67.276 19.335 133.279 29.072 196.812 29.072 14.727 0 29.322-.524 43.768-1.571 4.131-.3 7.238-3.892 6.938-8.024-.299-4.131-3.894-7.235-8.024-6.938z"/></g></svg>