<svg id="Layer_1" enable-background="new 0 0 68 68" height="512" viewBox="0 0 68 68" width="512" xmlns="http://www.w3.org/2000/svg"><g><path d="m59.37592 48.06635c-6.57007-5.48999-11.43005-11.46997-16.22998-20.02997v-3.73004c.22722-.605-.43211-4.64686 2.30994-8.63995.75-1.08002.65002-2.54004-.23999-3.46002-.56995-.59003-1.20007-1.03998-1.89001-1.34003v-6.44995c0-1.33002-1.06995-2.41003-2.3999-2.41003-1.33008 0-2.41016 1.08002-2.41016 2.41003v6.26996c-1.35986.35004-2.86987.98004-4.50989 1.90002-1.65002-.92999-3.16003-1.56-4.52002-1.90997v-6.26001c0-1.33002-1.07996-2.41003-2.40002-2.41003-1.32996 0-2.40991 1.08002-2.40991 2.41003v6.44c-.70007.31-1.32007.75995-1.89014 1.34998-.87988.91998-.97998 2.38-.23999 3.46002 2.74182 3.96763 2.09284 7.97901 2.29004 8.57001v3.81c-4.80005 8.53998-9.6499 14.53998-16.20996 20.01996-1.36246 1.14963-1.28621 3.25303.10999 4.29999 1.30994 1 2.63 1.92004 3.94006 2.76001-.45437 1.08957-.15 2.4445.8999 3.23999 13.59424 10.17063 27.31834 10.16885 40.8501 0 1.00623-.7624 1.37142-2.07456.88989-3.22998 1.32007-.83997 2.64001-1.76001 3.94995-2.77002 1.44696-1.10105 1.41959-3.19831.1101-4.3zm-33.04004-23.27997h15.31006v2.70996h-15.31006zm13.67993-20.36999c0-.5.41016-.91003.91016-.91003s.8999.41003.8999.91003v6.01996c-.56006-.08997-1.16992-.09998-1.81006-.02997zm-13.83985 0c0-.5.40991-.91003.90991-.91003s.90002.41003.90002.91003v5.97998c-.64001-.06-1.25-.04999-1.80994.03998v-6.01996zm-2.39013 10.39996c-.34985-.5-.30994-1.15997.09009-1.57001 2.53384-2.62386 6.59335-.96424 9.75.86005.22998.13.52002.13.75 0 3.15723-1.82461 7.22629-3.48379 9.76001-.86005.38989.41003.42993 1.07001.08997 1.57001-1.66003 2.40002-2.41003 4.90002-2.51001 8.47003h-15.42005c-.10987-3.57-.85987-6.07-2.51001-8.47003zm34.57007 36.36005c-1.31006 1-2.62 1.91998-3.93994 2.75995-5.5-5.06-9.42004-12.07996-12.89014-18.26996-.19995-.36005-.6499-.48999-1.0199-.29004-.35999.20001-.49011.66003-.29004 1.02002 4.02084 7.18155 7.49973 13.2925 13.39001 18.84003.55559.50277.57526 1.44942-.08008 1.92999-3.72998 2.81-7.43994 4.82001-11.12988 6.01996-2.17618-4.78662-3.55408-10.44503-4.95007-16.07001-.09998-.39996-.5-.63995-.91003-.54999-.3999.10004-.63989.51001-.53992.91003 1.2328 4.97993 2.81285 11.46458 4.94995 16.13995-4.63 1.26001-9.25 1.26001-13.90002-.01996 2.08249-4.41643 3.79658-11.47178 4.95007-16.12.09998-.40002-.14001-.81-.54004-.91003-.40002-.08997-.80994.15002-.91003.54999-1.22226 4.92493-2.82807 11.54313-4.94995 16.06006-3.68994-1.21002-7.39001-3.21002-11.13-6.01001-.63902-.50705-.64286-1.40377-.07996-1.94 5.84737-5.50712 9.27416-11.47533 13.37988-18.83002.21008-.35999.08008-.82001-.28992-1.02002-.35999-.19995-.80994-.07001-1.02002.29004-3.46997 6.19-7.39001 13.19-12.86999 18.25-1.32007-.82001-2.63-1.73999-3.94995-2.73999-.61697-.47302-.67159-1.44573-.05005-1.96002 6.65002-5.56 11.58008-11.62 16.43994-20.22003h15.94006c4.84998 8.60004 9.79004 14.66004 16.44006 20.22003.61632.53147.59333 1.48269-.05004 1.96003z"/></g></svg>