<svg id="Слой_1" enable-background="new 0 0 56 56" height="512" viewBox="0 0 56 56" width="512" xmlns="http://www.w3.org/2000/svg"><g id="XMLID_3960_"><path id="XMLID_15_" d="m27.871 53.333c-.333 0-.645-.166-.83-.442l-6.824-10.158c-.149-.222-.203-.494-.15-.756l3.578-17.708 1.96.396-3.495 17.298 5.761 8.576 5.761-8.576-3.495-17.298c-.047-.232-.01-.473.104-.681l1.4-2.544 1.752.965-1.224 2.223 3.505 17.348c.053.262-.001.534-.15.756l-6.824 10.158c-.185.277-.496.443-.829.443z"/><path id="XMLID_14_" d="m27.871 25.467h-3.247c-.353 0-.68-.187-.86-.49l-1.236-2.085c-.281-.475-.125-1.088.351-1.37.474-.281 1.088-.125 1.37.351l.945 1.595h2.677c.552 0 1 .448 1 1s-.448.999-1 .999z"/><path id="XMLID_13_" d="m27.87 53.333c-.192 0-.386-.055-.557-.17-.458-.308-.581-.93-.272-1.388l6.824-10.158c.309-.457.929-.581 1.388-.272.458.308.58.93.272 1.388l-6.824 10.158c-.193.287-.51.442-.831.442z"/><path id="XMLID_12_" d="m24.296 47.373c-.191 0-.384-.055-.555-.169-.459-.307-.583-.928-.275-1.387l5.643-8.439c.307-.46.929-.582 1.387-.275.459.307.583.928.275 1.387l-5.643 8.439c-.192.288-.509.444-.832.444z"/><path id="XMLID_11_" d="m26.021 36.134c-.189 0-.38-.054-.55-.166-.461-.304-.587-.925-.283-1.386l5.339-8.079c.305-.462.924-.587 1.386-.283.46.305.587.925.282 1.386l-5.338 8.08c-.192.291-.511.448-.836.448z"/><path id="XMLID_8_" d="m20.963 25.475c-.026 0-.052-.001-.079-.003-.32-.025-.608-.203-.775-.476l-7.561-12.388c-.243-.398-.179-.912.156-1.237l4.537-4.42c.288-.281.717-.36 1.086-.205.165.07.304.18.408.317.642.637 6.374 5.447 9.904 8.386.206.171.334.417.357.683s-.062.531-.235.734l-7.037 8.258c-.191.223-.47.351-.761.351zm-6.292-13.228 6.426 10.529 5.485-6.438c-5.091-4.239-7.495-6.247-8.629-7.29z"/><path id="XMLID_5_" d="m35.037 25.475c-.292 0-.57-.127-.761-.352l-7.038-8.258c-.173-.203-.258-.468-.235-.734s.151-.512.357-.683c3.53-2.939 9.263-7.749 9.904-8.386.104-.137.243-.247.408-.317.369-.155.8-.075 1.087.205l4.536 4.42c.334.326.398.839.155 1.237l-7.561 12.388c-.167.273-.455.451-.774.476-.025.003-.052.004-.078.004zm-5.62-9.137 5.485 6.438 6.427-10.529-3.282-3.198c-1.135 1.042-3.538 3.05-8.63 7.289z"/><path id="XMLID_4_" d="m38.062 8.667h-20.124c-.552 0-1-.448-1-1s.448-1 1-1h20.123c.553 0 1 .448 1 1s-.447 1-.999 1z"/><path id="XMLID_3_" d="m19.252 47.439h-5.861c-1.418 0-2.637-1.06-2.833-2.464l-4.953-28.846c-.124-.879 0-2.42 2.166-3.202l5.096-1.716c.525-.176 1.091.105 1.267.628s-.105 1.091-.628 1.267l-5.076 1.71c-.942.34-.888.724-.849 1.005l4.953 28.847c.064.453.431.771.858.771h5.861c.552 0 1 .447 1 1s-.448 1-1.001 1z"/><path id="XMLID_2_" d="m42.608 47.439h-5.861c-.553 0-1-.447-1-1s.447-1 1-1h5.861c.427 0 .793-.318.853-.741l4.963-28.908c.034-.25.088-.634-.874-.981l-5.107-1.72c-.523-.176-.805-.744-.628-1.267.176-.522.74-.805 1.267-.628l5.127 1.727c2.186.788 2.311 2.329 2.191 3.177l-4.963 28.908c-.193 1.374-1.411 2.433-2.829 2.433z"/></g></svg>