<svg id="Layer_2" viewBox="0 0 45.07 43.86" xmlns="http://www.w3.org/2000/svg"><g id="Striktr&#xF8;je"><g fill="#1d1d1b"><path d="m27.8 3.12-.19-.98c-3.37.65-6.78.65-10.15 0l-.19.98c1.75.34 3.51.51 5.27.51s3.52-.17 5.27-.51z"/><path d="m14.03 40.63h1v1.45h-1z"/><path d="m16.03 40.63h1v1.45h-1z"/><path d="m18.03 40.63h1v1.45h-1z"/><path d="m20.03 40.63h1v1.45h-1z"/><path d="m22.03 40.63h1v1.45h-1z"/><path d="m24.03 40.63h1v1.45h-1z"/><path d="m26.03 40.63h1v1.45h-1z"/><path d="m28.03 40.63h1v1.45h-1z"/><path d="m30.03 40.63h1v1.45h-1z"/><path d="m2.17 40.7h1v1.45h-1z"/><path d="m4.17 40.7h1v1.45h-1z"/><path d="m6.17 40.7h1v1.45h-1z"/><path d="m45.05 38.86c-.03-2.34-.29-7.28-.95-12.71-.08-.7-.17-1.38-.26-2.06-.27-2.02-.58-3.93-.93-5.7l-.1-.5c-1.05-5.11-2.34-8.61-3.88-10.41-1.03-1.03-2.26-1.85-3.64-2.43-1.38-.57-2.83-.86-4.3-.86h-.41v-1.63c0-1.41-1.14-2.55-2.55-2.55h-10.98c-1.41 0-2.56 1.14-2.56 2.55v1.63h-.4c-1.47 0-2.92.29-4.3.86-1.38.58-2.61 1.4-3.67 2.46-1.51 1.77-2.81 5.27-3.85 10.38s-.1.5-.1.5c-.13.65-.25 1.32-.37 2.01-.31 1.8-.58 3.72-.82 5.76l-.05.44c-.63 5.25-.88 9.99-.91 12.26h-.02v5h9.34v-4.14l.02-.39c0-.05.34-5.41.85-11.04s.05-.52.05-.52c.03-.39.07-.77.11-1.14.25-2.62.51-4.93.77-6.73l.07-.51c.02-.17.05-.35.07-.51.04.37.07.74.09 1.11.02.3.03.6.03.91v17.89h-.14l.14.58v.43h.11l1 3.99h20.04l1-3.99h.12v-.46l.14-.55h-.14v-17.89c0-.31.01-.61.03-.91v-.04c.02-.36.05-.72.09-1.08.03.16.05.34.07.52l.07.51c.07.51.15 1.07.22 1.66.22 1.78.45 3.89.65 6.21 0 .06.01.12.02.18l.03.33c.52 5.63.85 10.99.85 11.04l.02.27v4.27h9.34v-5zm-9.47-13.54c-.07-.68-.14-1.33-.21-1.96-.01-.11-.02-.2-.04-.31-.06-.52-.12-1.02-.18-1.49-.02-.16-.04-.3-.06-.45-.04-.29-.07-.58-.11-.85 2.43-.3 4.8-.69 7.04-1.18.05.27.1.53.15.81.04.21.08.42.11.63.08.44.15.89.22 1.34.02.15.05.29.07.43.09.59.18 1.2.26 1.82.03.25.06.5.1.76.04.31.08.63.12.95-2.23.54-4.68.99-7.3 1.34-.04-.44-.08-.86-.12-1.28-.02-.18-.04-.38-.05-.55zm7.59 1.49c.59 5.08.84 9.76.88 11.98h-7.38c-.09-1.43-.4-5.95-.83-10.64 2.63-.35 5.08-.8 7.33-1.34zm-27.68-24.26c0-.85.7-1.55 1.56-1.55h10.98c.85 0 1.55.7 1.55 1.55v2.79c0 .53-.27 1-.68 1.28-.08.05-.16.1-.25.14-.21.08-.41.12-.61.12h-11.08c-.8-.08-1.4-.74-1.4-1.54v-1.16h-.06v-1.63zm-5.51 18.49c-.02.18-.05.36-.07.55-.06.45-.11.92-.17 1.4-.01.13-.03.25-.04.38-.07.62-.14 1.26-.2 1.94-.02.21-.04.43-.06.64-.04.4-.08.79-.12 1.21-2.6-.34-5.05-.79-7.3-1.33l.15-1.2c.02-.16.04-.33.06-.49.09-.63.17-1.25.27-1.86.02-.13.04-.26.06-.39.07-.47.15-.93.22-1.38.04-.23.08-.45.12-.67.05-.26.09-.51.14-.76 2.17.48 4.53.87 7.04 1.17-.03.25-.07.52-.1.78zm-.75 7.11c-.43 4.69-.73 9.21-.83 10.64h-7.38c.03-2.22.29-6.9.88-11.97 2.26.54 4.72.98 7.33 1.33zm-.88 14.71h-7.35v-3h7.34v3zm4.06-22.35c6.54.64 13.73.64 20.27 0v.38 6.62c-6.59.64-13.63.64-20.26 0v-6.62c0-.13 0-.26 0-.38zm19.37 22.28h-18.49l-.75-2.99h19.97l-.75 2.99zm-19.37-4v-10.27c3.31.32 6.71.48 10.13.48s6.83-.17 10.13-.48v10.27zm21.37-24.58-.48 1.86c-.3 1.14-.47 2.29-.55 3.43-6.58.66-13.82.66-20.41 0-.08-1.13-.25-2.28-.55-3.42l-.49-1.87-.48 1.87c-.2.78-.4 1.86-.59 3.2-2.49-.3-4.83-.69-6.98-1.17 1.01-4.95 2.23-8.3 3.61-9.92.94-.94 2.06-1.68 3.32-2.21 1.26-.52 2.58-.78 3.92-.78h.4v.16c0 1.41 1.15 2.55 2.56 2.55h10.98c.37 0 .72-.08 1.04-.23.94-.37 1.57-1.28 1.57-2.32v-.16h.35c1.34 0 2.66.26 3.92.78 1.26.53 2.38 1.27 3.29 2.18 1.4 1.64 2.63 5 3.64 9.95-2.22.48-4.56.88-6.98 1.17-.19-1.34-.39-2.42-.59-3.2l-.48-1.86zm10.29 28.65h-7.34v-3h7.34z"/><path d="m37.9 40.7h1v1.45h-1z"/><path d="m39.9 40.7h1v1.45h-1z"/><path d="m41.9 40.7h1v1.45h-1z"/></g></g></svg>